<svg width="32" height="32" viewBox="0 0 32 32" fill="none" xmlns="http://www.w3.org/2000/svg">
  <!-- Light bulb outer shell -->
  <path d="M16 2C12 2 9 5 9 9C9 11.5 10.2 13.7 12 15V18C12 19.1 12.9 20 14 20H18C19.1 20 20 19.1 20 18V15C21.8 13.7 23 11.5 23 9C23 5 20 2 16 2Z" fill="#FEF3C7" stroke="#F59E0B" stroke-width="1.5"/>
  
  <!-- Light bulb base -->
  <rect x="14" y="20" width="4" height="3" fill="#6B7280" rx="0.5"/>
  <rect x="13" y="23" width="6" height="2" fill="#4B5563" rx="1"/>
  
  <!-- Mechanical brain outline -->
  <path d="M12 8C12 6.5 13.5 5 16 5C18.5 5 20 6.5 20 8C20 9.5 18.5 11 16 11C13.5 11 12 9.5 12 8Z" fill="#E5E7EB" stroke="#9CA3AF" stroke-width="0.5"/>
  
  <!-- Brain circuit patterns -->
  <!-- Main circuit lines -->
  <path d="M13 7L15 7M17 7L19 7M13 8.5L19 8.5M13 9L15 9M17 9L19 9" stroke="#6B7280" stroke-width="0.8" stroke-linecap="round"/>
  
  <!-- Circuit nodes -->
  <circle cx="14" cy="7" r="0.8" fill="#10B981"/>
  <circle cx="18" cy="7" r="0.8" fill="#10B981"/>
  <circle cx="15" cy="8.5" r="0.6" fill="#10B981"/>
  <circle cx="17" cy="8.5" r="0.6" fill="#10B981"/>
  <circle cx="14" cy="9" r="0.6" fill="#10B981"/>
  <circle cx="18" cy="9" r="0.6" fill="#10B981"/>
  
  <!-- Neural network connections -->
  <path d="M14 7L15 8.5M18 7L17 8.5M15 8.5L14 9M17 8.5L18 9" stroke="#10B981" stroke-width="0.4" stroke-linecap="round" opacity="0.7"/>
  
  <!-- Microchips -->
  <rect x="13.5" y="6.2" width="1" height="0.6" fill="#374151" rx="0.1"/>
  <rect x="17.5" y="6.2" width="1" height="0.6" fill="#374151" rx="0.1"/>
  
  <!-- Chip details -->
  <rect x="13.6" y="6.3" width="0.8" height="0.4" fill="#10B981" rx="0.05"/>
  <rect x="17.6" y="6.3" width="0.8" height="0.4" fill="#10B981" rx="0.05"/>
  
  <!-- Glow effect -->
  <path d="M16 2C12 2 9 5 9 9C9 11.5 10.2 13.7 12 15V18C12 19.1 12.9 20 14 20H18C19.1 20 20 19.1 20 18V15C21.8 13.7 23 11.5 23 9C23 5 20 2 16 2Z" fill="none" stroke="#10B981" stroke-width="2" opacity="0.3" filter="blur(2px)"/>
</svg>
